<svg fill="none" height="312" viewBox="0 0 700 312" width="700" xmlns="http://www.w3.org/2000/svg"><path d="m34.45 133.099c3.4748 0 6.3-2.803 6.3-6.25s-2.8252-6.25-6.3-6.25-6.3 2.803-6.3 6.25 2.8252 6.25 6.3 6.25zm44.1 0c3.4748 0 6.3-2.803 6.3-6.25s-2.8252-6.25-6.3-6.25-6.3 2.803-6.3 6.25 2.8252 6.25 6.3 6.25zm3.15 3.125h-6.3c-1.7325 0-3.2977.694-4.4395 1.817 3.967 2.158 6.7823 6.054 7.3926 10.683h6.4969c1.7423 0 3.15-1.396 3.15-3.125v-3.125c0-3.447-2.8252-6.25-6.3-6.25zm-25.2 0c6.0933 0 11.025-4.892 11.025-10.937s-4.9317-10.938-11.025-10.938-11.025 4.893-11.025 10.938 4.9317 10.937 11.025 10.937zm7.56 3.125h-.817c-2.0475.977-4.3214 1.563-6.743 1.563s-4.6856-.586-6.743-1.563h-.817c-6.2606 0-11.34 5.039-11.34 11.25v2.813c0 2.588 2.1164 4.687 4.725 4.687h28.35c2.6086 0 4.725-2.099 4.725-4.687v-2.813c0-6.211-5.0794-11.25-11.34-11.25zm-22.0205-1.308c-1.1418-1.123-2.707-1.817-4.4395-1.817h-6.3c-3.4748 0-6.3 2.803-6.3 6.25v3.125c0 1.729 1.4077 3.125 3.15 3.125h6.487c.6202-4.629 3.4355-8.525 7.4025-10.683z" fill="#5653ff"/><rect fill="#c2c1ff" height="166" rx="13" width="171" x="302" y="51"/><rect fill="#5653ff" height="40" rx="5" width="141" x="317" y="65"/><rect fill="#5653ff" height="40" rx="5" width="141" x="317" y="114"/><rect fill="#5653ff" height="40" rx="5" width="141" x="317" y="163"/><path d="m347.8 79.672h1.744l4.88 11.328h-2.304l-1.056-2.592h-4.912l-1.024 2.592h-2.256zm2.56 7.008-1.744-4.608-1.776 4.608zm6.929-3.36v1.072h.048c.096-.1493.219-.2987.368-.448.16-.16.352-.2987.576-.416.224-.128.475-.2293.752-.304.288-.0853.608-.128.96-.128.544 0 1.045.1067 1.504.32.459.2027.853.4853 1.184.848s.587.7893.768 1.28.272 1.0187.272 1.584-.091 1.0987-.272 1.6c-.171.4907-.421.9227-.752 1.296-.32.3627-.715.656-1.184.88-.459.2133-.981.32-1.568.32-.544 0-1.045-.112-1.504-.336-.448-.224-.795-.528-1.04-.912h-.032v4.864h-1.92v-11.52zm4.48 3.808c0-.2987-.048-.592-.144-.88-.085-.2987-.219-.5653-.4-.8s-.411-.4213-.688-.56c-.277-.1493-.603-.224-.976-.224-.352 0-.667.0747-.944.224s-.517.3413-.72.576c-.192.2347-.341.5013-.448.8-.096.2987-.144.5973-.144.896s.048.5973.144.896c.107.288.256.5493.448.784.203.2347.443.4267.72.576.277.1387.592.208.944.208.373 0 .699-.0747.976-.224s.507-.3413.688-.576.315-.5013.4-.8c.096-.2987.144-.5973.144-.896zm5.645-3.808v1.072h.048c.096-.1493.219-.2987.368-.448.16-.16.352-.2987.576-.416.224-.128.475-.2293.752-.304.288-.0853.608-.128.96-.128.544 0 1.045.1067 1.504.32.459.2027.853.4853 1.184.848s.587.7893.768 1.28.272 1.0187.272 1.584-.091 1.0987-.272 1.6c-.171.4907-.421.9227-.752 1.296-.32.3627-.715.656-1.184.88-.459.2133-.981.32-1.568.32-.544 0-1.045-.112-1.504-.336-.448-.224-.795-.528-1.04-.912h-.032v4.864h-1.92v-11.52zm4.48 3.808c0-.2987-.048-.592-.144-.88-.085-.2987-.219-.5653-.4-.8s-.411-.4213-.688-.56c-.277-.1493-.603-.224-.976-.224-.352 0-.667.0747-.944.224s-.517.3413-.72.576c-.192.2347-.341.5013-.448.8-.096.2987-.144.5973-.144.896s.048.5973.144.896c.107.288.256.5493.448.784.203.2347.443.4267.72.576.277.1387.592.208.944.208.373 0 .699-.0747.976-.224s.507-.3413.688-.576.315-.5013.4-.8c.096-.2987.144-.5973.144-.896zm3.837-8.224h1.92v12.096h-1.92zm4.281 4.416h1.92v7.68h-1.92zm-.272-2.608c0-.3093.112-.576.336-.8.235-.2347.528-.352.88-.352s.645.112.88.336c.245.2133.368.4853.368.816s-.123.608-.368.832c-.235.2133-.528.32-.88.32s-.645-.112-.88-.336c-.224-.2347-.336-.5067-.336-.816zm9.769 4.736c-.149-.2133-.373-.3893-.672-.528-.298-.1493-.602-.224-.912-.224-.352 0-.661.0747-.928.224-.266.1387-.49.3253-.672.56-.17.2347-.298.5013-.384.8-.085.288-.128.5813-.128.88s.043.5973.128.896c.096.288.235.5493.416.784.182.2347.406.4267.672.576.278.1387.598.208.96.208.299 0 .598-.0587.896-.176.299-.1173.539-.288.72-.512l1.2 1.216c-.32.3413-.73.608-1.232.8-.49.1813-1.024.272-1.6.272-.565 0-1.104-.0907-1.616-.272-.501-.1813-.944-.448-1.328-.8-.373-.352-.672-.7787-.896-1.28-.213-.5013-.32-1.072-.32-1.712 0-.6187.107-1.1787.32-1.68.224-.5013.523-.928.896-1.28.374-.352.806-.624 1.296-.816.502-.192 1.035-.288 1.6-.288.566 0 1.11.1067 1.632.32.534.2133.955.5067 1.264.88zm7.333 4.576h-.048c-.192.3413-.501.624-.928.848-.427.2133-.912.32-1.456.32-.309 0-.635-.0427-.976-.128-.331-.0747-.64-.2027-.928-.384-.277-.192-.512-.4373-.704-.736-.181-.3093-.272-.688-.272-1.136 0-.576.16-1.0347.48-1.376.331-.3413.752-.6027 1.264-.784s1.077-.2987 1.696-.352c.629-.064 1.243-.096 1.84-.096v-.192c0-.48-.176-.832-.528-1.056-.341-.2347-.752-.352-1.232-.352-.405 0-.795.0853-1.168.256s-.683.3787-.928.624l-.992-1.168c.437-.4053.939-.7093 1.504-.912.576-.2027 1.157-.304 1.744-.304.683 0 1.243.096 1.68.288.448.192.8.4427 1.056.752s.432.656.528 1.04c.107.384.16.768.16 1.152v4.672h-1.792zm-.032-2.528h-.432c-.309 0-.635.016-.976.048-.341.0213-.656.08-.944.176-.288.0853-.528.2133-.72.384-.192.16-.288.384-.288.672 0 .1813.037.336.112.464.085.1173.192.2133.32.288s.272.128.432.16.32.048.48.048c.661 0 1.163-.176 1.504-.528s.512-.832.512-1.44zm2.801-2.64v-1.536h1.344v-2.224h1.888v2.224h1.92v1.536h-1.92v3.568c0 .3413.058.624.176.848.128.224.405.336.832.336.128 0 .266-.0107.415-.032.15-.032.283-.0747.401-.128l.064 1.504c-.171.064-.374.112-.608.144-.235.0427-.459.064-.672.064-.512 0-.928-.0693-1.248-.208-.32-.1493-.576-.3467-.768-.592-.182-.256-.31-.544-.384-.864-.064-.3307-.096-.6827-.096-1.056v-3.584zm6.573-1.536h1.92v7.68h-1.92zm-.272-2.608c0-.3093.112-.576.336-.8.235-.2347.528-.352.88-.352s.645.112.88.336c.245.2133.368.4853.368.816s-.123.608-.368.832c-.235.2133-.528.32-.88.32s-.645-.112-.88-.336c-.224-.2347-.336-.5067-.336-.816zm4.073 6.416c0-.608.107-1.1573.32-1.648.224-.5013.523-.928.896-1.28.374-.352.816-.624 1.328-.816s1.056-.288 1.632-.288 1.12.096 1.632.288.955.464 1.328.816c.374.352.667.7787.88 1.28.224.4907.336 1.04.336 1.648s-.112 1.1627-.336 1.664c-.213.5013-.506.9333-.88 1.296-.373.352-.816.6293-1.328.832s-1.056.304-1.632.304-1.12-.1013-1.632-.304-.954-.48-1.328-.832c-.373-.3627-.672-.7947-.896-1.296-.213-.5013-.32-1.056-.32-1.664zm1.952 0c0 .2987.043.5973.128.896.096.2987.235.5653.416.8.182.2347.411.4267.688.576.278.1493.608.224.992.224s.715-.0747.992-.224c.278-.1493.507-.3413.688-.576.182-.2347.315-.5013.4-.8.096-.2987.144-.5973.144-.896s-.048-.592-.144-.88c-.085-.2987-.218-.5653-.4-.8-.181-.2347-.41-.4213-.688-.56-.277-.1493-.608-.224-.992-.224s-.714.0747-.992.224c-.277.1387-.506.3253-.688.56-.181.2347-.32.5013-.416.8-.085.288-.128.5813-.128.88zm8.262-3.808h1.824v1.232h.032c.171-.384.464-.72.88-1.008.427-.2987.928-.448 1.504-.448.501 0 .928.0907 1.28.272.363.1707.656.4.88.688.235.288.405.6187.512.992s.16.7573.16 1.152v4.8h-1.92v-4.256c0-.224-.016-.4587-.048-.704s-.101-.464-.208-.656c-.107-.2027-.256-.368-.448-.496-.181-.128-.427-.192-.736-.192s-.576.064-.8.192c-.224.1173-.411.272-.56.464-.139.192-.245.416-.32.672-.075.2453-.112.496-.112.752v4.224h-1.92z" fill="#fff"/><path d="m348.8 128.672h1.744l4.88 11.328h-2.304l-1.056-2.592h-4.912l-1.024 2.592h-2.256zm2.56 7.008-1.744-4.608-1.776 4.608zm6.929-3.36v1.072h.048c.096-.149.219-.299.368-.448.16-.16.352-.299.576-.416.224-.128.475-.229.752-.304.288-.085.608-.128.96-.128.544 0 1.045.107 1.504.32.459.203.853.485 1.184.848s.587.789.768 1.28.272 1.019.272 1.584-.091 1.099-.272 1.6c-.171.491-.421.923-.752 1.296-.32.363-.715.656-1.184.88-.459.213-.981.32-1.568.32-.544 0-1.045-.112-1.504-.336-.448-.224-.795-.528-1.04-.912h-.032v4.864h-1.92v-11.52zm4.48 3.808c0-.299-.048-.592-.144-.88-.085-.299-.219-.565-.4-.8s-.411-.421-.688-.56c-.277-.149-.603-.224-.976-.224-.352 0-.667.075-.944.224s-.517.341-.72.576c-.192.235-.341.501-.448.8-.096.299-.144.597-.144.896s.048.597.144.896c.107.288.256.549.448.784.203.235.443.427.72.576.277.139.592.208.944.208.373 0 .699-.075.976-.224s.507-.341.688-.576.315-.501.4-.8c.096-.299.144-.597.144-.896zm5.645-3.808v1.072h.048c.096-.149.219-.299.368-.448.16-.16.352-.299.576-.416.224-.128.475-.229.752-.304.288-.085.608-.128.96-.128.544 0 1.045.107 1.504.32.459.203.853.485 1.184.848s.587.789.768 1.28.272 1.019.272 1.584-.091 1.099-.272 1.6c-.171.491-.421.923-.752 1.296-.32.363-.715.656-1.184.88-.459.213-.981.32-1.568.32-.544 0-1.045-.112-1.504-.336-.448-.224-.795-.528-1.04-.912h-.032v4.864h-1.92v-11.52zm4.48 3.808c0-.299-.048-.592-.144-.88-.085-.299-.219-.565-.4-.8s-.411-.421-.688-.56c-.277-.149-.603-.224-.976-.224-.352 0-.667.075-.944.224s-.517.341-.72.576c-.192.235-.341.501-.448.8-.096.299-.144.597-.144.896s.048.597.144.896c.107.288.256.549.448.784.203.235.443.427.72.576.277.139.592.208.944.208.373 0 .699-.075.976-.224s.507-.341.688-.576.315-.501.4-.8c.096-.299.144-.597.144-.896zm3.837-8.224h1.92v12.096h-1.92zm4.281 4.416h1.92v7.68h-1.92zm-.272-2.608c0-.309.112-.576.336-.8.235-.235.528-.352.88-.352s.645.112.88.336c.245.213.368.485.368.816s-.123.608-.368.832c-.235.213-.528.32-.88.32s-.645-.112-.88-.336c-.224-.235-.336-.507-.336-.816zm9.769 4.736c-.149-.213-.373-.389-.672-.528-.298-.149-.602-.224-.912-.224-.352 0-.661.075-.928.224-.266.139-.49.325-.672.56-.17.235-.298.501-.384.8-.085.288-.128.581-.128.88s.043.597.128.896c.096.288.235.549.416.784.182.235.406.427.672.576.278.139.598.208.96.208.299 0 .598-.059.896-.176.299-.117.539-.288.72-.512l1.2 1.216c-.32.341-.73.608-1.232.8-.49.181-1.024.272-1.6.272-.565 0-1.104-.091-1.616-.272-.501-.181-.944-.448-1.328-.8-.373-.352-.672-.779-.896-1.28-.213-.501-.32-1.072-.32-1.712 0-.619.107-1.179.32-1.68.224-.501.523-.928.896-1.28.374-.352.806-.624 1.296-.816.502-.192 1.035-.288 1.6-.288.566 0 1.11.107 1.632.32.534.213.955.507 1.264.88zm7.333 4.576h-.048c-.192.341-.501.624-.928.848-.427.213-.912.32-1.456.32-.309 0-.635-.043-.976-.128-.331-.075-.64-.203-.928-.384-.277-.192-.512-.437-.704-.736-.181-.309-.272-.688-.272-1.136 0-.576.16-1.035.48-1.376.331-.341.752-.603 1.264-.784s1.077-.299 1.696-.352c.629-.064 1.243-.096 1.84-.096v-.192c0-.48-.176-.832-.528-1.056-.341-.235-.752-.352-1.232-.352-.405 0-.795.085-1.168.256s-.683.379-.928.624l-.992-1.168c.437-.405.939-.709 1.504-.912.576-.203 1.157-.304 1.744-.304.683 0 1.243.096 1.68.288.448.192.8.443 1.056.752s.432.656.528 1.04c.107.384.16.768.16 1.152v4.672h-1.792zm-.032-2.528h-.432c-.309 0-.635.016-.976.048-.341.021-.656.08-.944.176-.288.085-.528.213-.72.384-.192.16-.288.384-.288.672 0 .181.037.336.112.464.085.117.192.213.32.288s.272.128.432.16.32.048.48.048c.661 0 1.163-.176 1.504-.528s.512-.832.512-1.44zm2.801-2.64v-1.536h1.344v-2.224h1.888v2.224h1.92v1.536h-1.92v3.568c0 .341.058.624.176.848.128.224.405.336.832.336.128 0 .266-.011.415-.032.15-.032.283-.075.401-.128l.064 1.504c-.171.064-.374.112-.608.144-.235.043-.459.064-.672.064-.512 0-.928-.069-1.248-.208-.32-.149-.576-.347-.768-.592-.182-.256-.31-.544-.384-.864-.064-.331-.096-.683-.096-1.056v-3.584zm6.573-1.536h1.92v7.68h-1.92zm-.272-2.608c0-.309.112-.576.336-.8.235-.235.528-.352.88-.352s.645.112.88.336c.245.213.368.485.368.816s-.123.608-.368.832c-.235.213-.528.32-.88.32s-.645-.112-.88-.336c-.224-.235-.336-.507-.336-.816zm4.073 6.416c0-.608.107-1.157.32-1.648.224-.501.523-.928.896-1.28.374-.352.816-.624 1.328-.816s1.056-.288 1.632-.288 1.12.096 1.632.288.955.464 1.328.816c.374.352.667.779.88 1.28.224.491.336 1.04.336 1.648s-.112 1.163-.336 1.664c-.213.501-.506.933-.88 1.296-.373.352-.816.629-1.328.832s-1.056.304-1.632.304-1.12-.101-1.632-.304-.954-.48-1.328-.832c-.373-.363-.672-.795-.896-1.296-.213-.501-.32-1.056-.32-1.664zm1.952 0c0 .299.043.597.128.896.096.299.235.565.416.8.182.235.411.427.688.576.278.149.608.224.992.224s.715-.075.992-.224c.278-.149.507-.341.688-.576.182-.235.315-.501.4-.8.096-.299.144-.597.144-.896s-.048-.592-.144-.88c-.085-.299-.218-.565-.4-.8-.181-.235-.41-.421-.688-.56-.277-.149-.608-.224-.992-.224s-.714.075-.992.224c-.277.139-.506.325-.688.56-.181.235-.32.501-.416.8-.085.288-.128.581-.128.88zm8.262-3.808h1.824v1.232h.032c.171-.384.464-.72.88-1.008.427-.299.928-.448 1.504-.448.501 0 .928.091 1.28.272.363.171.656.4.88.688.235.288.405.619.512.992s.16.757.16 1.152v4.8h-1.92v-4.256c0-.224-.016-.459-.048-.704s-.101-.464-.208-.656c-.107-.203-.256-.368-.448-.496-.181-.128-.427-.192-.736-.192s-.576.064-.8.192c-.224.117-.411.272-.56.464-.139.192-.245.416-.32.672-.075.245-.112.496-.112.752v4.224h-1.92z" fill="#fff"/><path d="m348.8 177.672h1.744l4.88 11.328h-2.304l-1.056-2.592h-4.912l-1.024 2.592h-2.256zm2.56 7.008-1.744-4.608-1.776 4.608zm6.929-3.36v1.072h.048c.096-.149.219-.299.368-.448.16-.16.352-.299.576-.416.224-.128.475-.229.752-.304.288-.085.608-.128.96-.128.544 0 1.045.107 1.504.32.459.203.853.485 1.184.848s.587.789.768 1.28.272 1.019.272 1.584-.091 1.099-.272 1.6c-.171.491-.421.923-.752 1.296-.32.363-.715.656-1.184.88-.459.213-.981.32-1.568.32-.544 0-1.045-.112-1.504-.336-.448-.224-.795-.528-1.04-.912h-.032v4.864h-1.92v-11.52zm4.48 3.808c0-.299-.048-.592-.144-.88-.085-.299-.219-.565-.4-.8s-.411-.421-.688-.56c-.277-.149-.603-.224-.976-.224-.352 0-.667.075-.944.224s-.517.341-.72.576c-.192.235-.341.501-.448.8-.096.299-.144.597-.144.896s.048.597.144.896c.107.288.256.549.448.784.203.235.443.427.72.576.277.139.592.208.944.208.373 0 .699-.075.976-.224s.507-.341.688-.576.315-.501.4-.8c.096-.299.144-.597.144-.896zm5.645-3.808v1.072h.048c.096-.149.219-.299.368-.448.16-.16.352-.299.576-.416.224-.128.475-.229.752-.304.288-.085.608-.128.96-.128.544 0 1.045.107 1.504.32.459.203.853.485 1.184.848s.587.789.768 1.28.272 1.019.272 1.584-.091 1.099-.272 1.6c-.171.491-.421.923-.752 1.296-.32.363-.715.656-1.184.88-.459.213-.981.32-1.568.32-.544 0-1.045-.112-1.504-.336-.448-.224-.795-.528-1.04-.912h-.032v4.864h-1.92v-11.52zm4.48 3.808c0-.299-.048-.592-.144-.88-.085-.299-.219-.565-.4-.8s-.411-.421-.688-.56c-.277-.149-.603-.224-.976-.224-.352 0-.667.075-.944.224s-.517.341-.72.576c-.192.235-.341.501-.448.8-.096.299-.144.597-.144.896s.048.597.144.896c.107.288.256.549.448.784.203.235.443.427.72.576.277.139.592.208.944.208.373 0 .699-.075.976-.224s.507-.341.688-.576.315-.501.4-.8c.096-.299.144-.597.144-.896zm3.837-8.224h1.92v12.096h-1.92zm4.281 4.416h1.92v7.68h-1.92zm-.272-2.608c0-.309.112-.576.336-.8.235-.235.528-.352.88-.352s.645.112.88.336c.245.213.368.485.368.816s-.123.608-.368.832c-.235.213-.528.32-.88.32s-.645-.112-.88-.336c-.224-.235-.336-.507-.336-.816zm9.769 4.736c-.149-.213-.373-.389-.672-.528-.298-.149-.602-.224-.912-.224-.352 0-.661.075-.928.224-.266.139-.49.325-.672.56-.17.235-.298.501-.384.8-.085.288-.128.581-.128.88s.043.597.128.896c.096.288.235.549.416.784.182.235.406.427.672.576.278.139.598.208.96.208.299 0 .598-.059.896-.176.299-.117.539-.288.72-.512l1.2 1.216c-.32.341-.73.608-1.232.8-.49.181-1.024.272-1.6.272-.565 0-1.104-.091-1.616-.272-.501-.181-.944-.448-1.328-.8-.373-.352-.672-.779-.896-1.28-.213-.501-.32-1.072-.32-1.712 0-.619.107-1.179.32-1.68.224-.501.523-.928.896-1.28.374-.352.806-.624 1.296-.816.502-.192 1.035-.288 1.6-.288.566 0 1.11.107 1.632.32.534.213.955.507 1.264.88zm7.333 4.576h-.048c-.192.341-.501.624-.928.848-.427.213-.912.32-1.456.32-.309 0-.635-.043-.976-.128-.331-.075-.64-.203-.928-.384-.277-.192-.512-.437-.704-.736-.181-.309-.272-.688-.272-1.136 0-.576.16-1.035.48-1.376.331-.341.752-.603 1.264-.784s1.077-.299 1.696-.352c.629-.064 1.243-.096 1.84-.096v-.192c0-.48-.176-.832-.528-1.056-.341-.235-.752-.352-1.232-.352-.405 0-.795.085-1.168.256s-.683.379-.928.624l-.992-1.168c.437-.405.939-.709 1.504-.912.576-.203 1.157-.304 1.744-.304.683 0 1.243.096 1.68.288.448.192.8.443 1.056.752s.432.656.528 1.04c.107.384.16.768.16 1.152v4.672h-1.792zm-.032-2.528h-.432c-.309 0-.635.016-.976.048-.341.021-.656.08-.944.176-.288.085-.528.213-.72.384-.192.16-.288.384-.288.672 0 .181.037.336.112.464.085.117.192.213.32.288s.272.128.432.16.32.048.48.048c.661 0 1.163-.176 1.504-.528s.512-.832.512-1.44zm2.801-2.64v-1.536h1.344v-2.224h1.888v2.224h1.92v1.536h-1.92v3.568c0 .341.058.624.176.848.128.224.405.336.832.336.128 0 .266-.011.415-.032.15-.032.283-.075.401-.128l.064 1.504c-.171.064-.374.112-.608.144-.235.043-.459.064-.672.064-.512 0-.928-.069-1.248-.208-.32-.149-.576-.347-.768-.592-.182-.256-.31-.544-.384-.864-.064-.331-.096-.683-.096-1.056v-3.584zm6.573-1.536h1.92v7.68h-1.92zm-.272-2.608c0-.309.112-.576.336-.8.235-.235.528-.352.88-.352s.645.112.88.336c.245.213.368.485.368.816s-.123.608-.368.832c-.235.213-.528.32-.88.32s-.645-.112-.88-.336c-.224-.235-.336-.507-.336-.816zm4.073 6.416c0-.608.107-1.157.32-1.648.224-.501.523-.928.896-1.28.374-.352.816-.624 1.328-.816s1.056-.288 1.632-.288 1.12.096 1.632.288.955.464 1.328.816c.374.352.667.779.88 1.28.224.491.336 1.04.336 1.648s-.112 1.163-.336 1.664c-.213.501-.506.933-.88 1.296-.373.352-.816.629-1.328.832s-1.056.304-1.632.304-1.12-.101-1.632-.304-.954-.48-1.328-.832c-.373-.363-.672-.795-.896-1.296-.213-.501-.32-1.056-.32-1.664zm1.952 0c0 .299.043.597.128.896.096.299.235.565.416.8.182.235.411.427.688.576.278.149.608.224.992.224s.715-.075.992-.224c.278-.149.507-.341.688-.576.182-.235.315-.501.4-.8.096-.299.144-.597.144-.896s-.048-.592-.144-.88c-.085-.299-.218-.565-.4-.8-.181-.235-.41-.421-.688-.56-.277-.149-.608-.224-.992-.224s-.714.075-.992.224c-.277.139-.506.325-.688.56-.181.235-.32.501-.416.8-.085.288-.128.581-.128.88zm8.262-3.808h1.824v1.232h.032c.171-.384.464-.72.88-1.008.427-.299.928-.448 1.504-.448.501 0 .928.091 1.28.272.363.171.656.4.88.688.235.288.405.619.512.992s.16.757.16 1.152v4.8h-1.92v-4.256c0-.224-.016-.459-.048-.704s-.101-.464-.208-.656c-.107-.203-.256-.368-.448-.496-.181-.128-.427-.192-.736-.192s-.576.064-.8.192c-.224.117-.411.272-.56.464-.139.192-.245.416-.32.672-.075.245-.112.496-.112.752v4.224h-1.92z" fill="#fff"/><path d="m89.8388 234.003-.6319 1.653 1.7352.352c7.1581 1.451 12.5579 7.811 12.5579 15.43 0 8.703-7.0322 15.75-15.7 15.75h-49.45c-9.8503 0-17.85-8.017-17.85-17.907 0-7.809 4.984-14.451 11.9259-16.9l1.0407-.367-.0407-1.103c-.0137-.368-.0259-.704-.0259-1.036 0-11.089 8.9538-20.063 20-20.063 7.4083 0 13.8713 4.033 17.3377 10.057l.8026 1.395 1.335-.899c1.8035-1.214 3.986-1.927 6.3247-1.927 6.2893 0 11.4 5.119 11.4 11.437 0 1.456-.2736 2.851-.7612 4.128z" stroke="#5653ff" stroke-width="3"/><path d="m50.424 280.328c-.2987-.405-.688-.699-1.168-.88-.48-.192-.9493-.288-1.408-.288-.5867 0-1.12.107-1.6.32s-.896.507-1.248.88c-.3413.373-.608.811-.8 1.312-.1813.501-.272 1.045-.272 1.632 0 .619.0907 1.184.272 1.696s.4373.955.768 1.328c.3413.363.7467.645 1.216.848s.9973.304 1.584.304c.608 0 1.1467-.117 1.616-.352.4693-.245.848-.565 1.136-.96l1.616 1.136c-.5013.629-1.1147 1.12-1.84 1.472-.7253.341-1.5733.512-2.544.512-.8853 0-1.7013-.144-2.448-.432-.736-.299-1.3707-.709-1.904-1.232-.5333-.533-.9493-1.163-1.248-1.888-.2987-.736-.448-1.547-.448-2.432 0-.907.1547-1.723.464-2.448.32-.736.752-1.36 1.296-1.872.5547-.512 1.2053-.907 1.952-1.184s1.5573-.416 2.432-.416c.3627 0 .7413.037 1.136.112.3947.064.7733.171 1.136.32.3627.139.704.315 1.024.528s.592.469.816.768zm2.9646-2.656h4.016c.736 0 1.4774.096 2.224.288.7467.192 1.4187.512 2.016.96.5974.437 1.0827 1.019 1.456 1.744.3734.715.56 1.605.56 2.672 0 .992-.1866 1.845-.56 2.56-.3733.715-.8586 1.301-1.456 1.76-.5973.459-1.2693.8-2.016 1.024-.7466.213-1.488.32-2.224.32h-4.016zm3.696 9.568c.5227 0 1.0454-.059 1.568-.176.5227-.128.992-.336 1.408-.624.4267-.299.7734-.699 1.04-1.2.2667-.501.4-1.136.4-1.904 0-.811-.1333-1.472-.4-1.984-.2666-.512-.6133-.912-1.04-1.2-.416-.288-.8853-.485-1.408-.592-.5226-.107-1.0453-.16-1.568-.16h-1.68v7.84zm8.5228-9.568h2.672l5.264 8.48h.032v-8.48h2.016v11.328h-2.56l-5.376-8.752h-.032v8.752h-2.016z" fill="#5653ff"/><rect fill="#5653ff" height="104" rx="3" transform="matrix(0 -1 1 0 -22 310)" width="58" x="144" y="166"/><path d="m178.328 122.339h2.016v9.536h4.816v1.792h-6.832zm7.347 7.456c0-.608.106-1.158.32-1.648.224-.502.522-.928.896-1.28.373-.352.816-.624 1.328-.816s1.056-.288 1.632-.288 1.12.096 1.632.288.954.464 1.328.816c.373.352.666.778.88 1.28.224.49.336 1.04.336 1.648s-.112 1.162-.336 1.664c-.214.501-.507.933-.88 1.296-.374.352-.816.629-1.328.832-.512.202-1.056.304-1.632.304s-1.12-.102-1.632-.304c-.512-.203-.955-.48-1.328-.832-.374-.363-.672-.795-.896-1.296-.214-.502-.32-1.056-.32-1.664zm1.952 0c0 .298.042.597.128.896.096.298.234.565.416.8.181.234.41.426.688.576.277.149.608.224.992.224s.714-.075.992-.224c.277-.15.506-.342.688-.576.181-.235.314-.502.4-.8.096-.299.144-.598.144-.896 0-.299-.048-.592-.144-.88-.086-.299-.219-.566-.4-.8-.182-.235-.411-.422-.688-.56-.278-.15-.608-.224-.992-.224s-.715.074-.992.224c-.278.138-.507.325-.688.56-.182.234-.32.501-.416.8-.086.288-.128.581-.128.88zm13.029 2.896h-.048c-.192.341-.501.624-.928.848-.426.213-.912.32-1.456.32-.309 0-.634-.043-.976-.128-.33-.075-.64-.203-.928-.384-.277-.192-.512-.438-.704-.736-.181-.31-.272-.688-.272-1.136 0-.576.16-1.035.48-1.376.331-.342.752-.603 1.264-.784.512-.182 1.078-.299 1.696-.352.63-.064 1.243-.096 1.84-.096v-.192c0-.48-.176-.832-.528-1.056-.341-.235-.752-.352-1.232-.352-.405 0-.794.085-1.168.256-.373.17-.682.378-.928.624l-.992-1.168c.438-.406.939-.71 1.504-.912.576-.203 1.158-.304 1.744-.304.683 0 1.243.096 1.68.288.448.192.8.442 1.056.752.256.309.432.656.528 1.04.107.384.16.768.16 1.152v4.672h-1.792zm-.032-2.528h-.432c-.309 0-.634.016-.976.048-.341.021-.656.08-.944.176-.288.085-.528.213-.72.384-.192.16-.288.384-.288.672 0 .181.038.336.112.464.086.117.192.213.32.288.128.074.272.128.432.16s.32.048.48.048c.662 0 1.163-.176 1.504-.528.342-.352.512-.832.512-1.44zm11.869 3.504h-1.824v-1.152h-.032c-.267.448-.64.789-1.12 1.024-.469.234-.976.352-1.52.352-.587 0-1.115-.107-1.584-.32-.459-.224-.853-.518-1.184-.88-.32-.374-.571-.806-.752-1.296-.171-.502-.256-1.035-.256-1.6 0-.566.091-1.094.272-1.584.181-.491.437-.918.768-1.28.331-.363.725-.646 1.184-.848.459-.214.96-.32 1.504-.32.352 0 .667.042.944.128.277.074.517.17.72.288.213.117.395.245.544.384.149.138.272.272.368.4h.048v-5.392h1.92zm-6.32-3.872c0 .298.043.597.128.896.096.298.235.565.416.8.181.234.411.426.688.576.277.149.603.224.976.224.352 0 .667-.07.944-.208.277-.15.512-.342.704-.576.203-.235.352-.496.448-.784.107-.299.16-.598.16-.896 0-.299-.053-.598-.16-.896-.096-.299-.245-.566-.448-.8-.192-.235-.427-.427-.704-.576-.277-.15-.592-.224-.944-.224-.373 0-.699.074-.976.224-.277.138-.507.325-.688.56-.181.234-.32.501-.416.8-.085.288-.128.581-.128.88zm-45.29 12.544h4.416c.426 0 .848.053 1.264.16.416.096.784.261 1.104.496.33.224.597.517.8.88.202.362.304.8.304 1.312 0 .64-.182 1.168-.544 1.584-.363.416-.838.714-1.424.896v.032c.714.096 1.301.373 1.76.832.458.458.688 1.072.688 1.84 0 .618-.123 1.141-.368 1.568-.246.416-.571.752-.976 1.008-.395.256-.854.442-1.376.56-.512.106-1.035.16-1.568.16h-4.08zm2.016 4.608h1.792c.672 0 1.184-.134 1.536-.4.352-.267.528-.646.528-1.136 0-.512-.182-.875-.544-1.088-.363-.214-.928-.32-1.696-.32h-1.616zm0 5.024h1.808c.256 0 .533-.016.832-.048.298-.043.57-.123.816-.24.256-.118.464-.288.624-.512.17-.224.256-.523.256-.896 0-.598-.203-1.014-.608-1.248-.406-.235-1.019-.352-1.84-.352h-1.888zm13.015.72h-.048c-.192.341-.501.624-.928.848-.427.213-.912.32-1.456.32-.309 0-.635-.043-.976-.128-.331-.075-.64-.203-.928-.384-.277-.192-.512-.438-.704-.736-.181-.31-.272-.688-.272-1.136 0-.576.16-1.035.48-1.376.331-.342.752-.603 1.264-.784.512-.182 1.077-.299 1.696-.352.629-.064 1.243-.096 1.84-.096v-.192c0-.48-.176-.832-.528-1.056-.341-.235-.752-.352-1.232-.352-.405 0-.795.085-1.168.256-.373.17-.683.378-.928.624l-.992-1.168c.437-.406.939-.71 1.504-.912.576-.203 1.157-.304 1.744-.304.683 0 1.243.096 1.68.288.448.192.8.442 1.056.752.256.309.432.656.528 1.04.107.384.16.768.16 1.152v4.672h-1.792zm-.032-2.528h-.432c-.309 0-.635.016-.976.048-.341.021-.656.08-.944.176-.288.085-.528.213-.72.384-.192.16-.288.384-.288.672 0 .181.037.336.112.464.085.117.192.213.32.288.128.074.272.128.432.16s.32.048.48.048c.661 0 1.163-.176 1.504-.528s.512-.832.512-1.44zm4.093-8.592h1.92v12.096h-1.92zm9.017 11.12h-.048c-.192.341-.501.624-.928.848-.427.213-.912.32-1.456.32-.309 0-.635-.043-.976-.128-.331-.075-.64-.203-.928-.384-.277-.192-.512-.438-.704-.736-.181-.31-.272-.688-.272-1.136 0-.576.16-1.035.48-1.376.331-.342.752-.603 1.264-.784.512-.182 1.077-.299 1.696-.352.629-.064 1.243-.096 1.84-.096v-.192c0-.48-.176-.832-.528-1.056-.341-.235-.752-.352-1.232-.352-.405 0-.795.085-1.168.256-.373.17-.683.378-.928.624l-.992-1.168c.437-.406.939-.71 1.504-.912.576-.203 1.157-.304 1.744-.304.683 0 1.243.096 1.68.288.448.192.8.442 1.056.752.256.309.432.656.528 1.04.107.384.16.768.16 1.152v4.672h-1.792zm-.032-2.528h-.432c-.309 0-.635.016-.976.048-.341.021-.656.08-.944.176-.288.085-.528.213-.72.384-.192.16-.288.384-.288.672 0 .181.037.336.112.464.085.117.192.213.32.288.128.074.272.128.432.16s.32.048.48.048c.661 0 1.163-.176 1.504-.528s.512-.832.512-1.44zm4.061-4.176h1.824v1.232h.032c.171-.384.464-.72.88-1.008.427-.299.928-.448 1.504-.448.501 0 .928.09 1.28.272.363.17.656.4.88.688.235.288.405.618.512.992.107.373.16.757.16 1.152v4.8h-1.92v-4.256c0-.224-.016-.459-.048-.704-.032-.246-.101-.464-.208-.656-.107-.203-.256-.368-.448-.496-.181-.128-.427-.192-.736-.192s-.576.064-.8.192c-.224.117-.411.272-.56.464-.139.192-.245.416-.32.672-.075.245-.112.496-.112.752v4.224h-1.92zm14.561 2.128c-.15-.214-.374-.39-.672-.528-.299-.15-.603-.224-.912-.224-.352 0-.662.074-.928.224-.267.138-.491.325-.672.56-.171.234-.299.501-.384.8-.086.288-.128.581-.128.88 0 .298.042.597.128.896.096.288.234.549.416.784.181.234.405.426.672.576.277.138.597.208.96.208.298 0 .597-.059.896-.176.298-.118.538-.288.72-.512l1.2 1.216c-.32.341-.731.608-1.232.8-.491.181-1.024.272-1.6.272-.566 0-1.104-.091-1.616-.272-.502-.182-.944-.448-1.328-.8-.374-.352-.672-.779-.896-1.28-.214-.502-.32-1.072-.32-1.712 0-.619.106-1.179.32-1.68.224-.502.522-.928.896-1.28.373-.352.805-.624 1.296-.816.501-.192 1.034-.288 1.6-.288.565 0 1.109.106 1.632.32.533.213.954.506 1.264.88zm7.972.944c0-.246-.037-.48-.112-.704-.064-.224-.171-.422-.32-.592-.149-.171-.341-.304-.576-.4-.224-.107-.491-.16-.8-.16-.576 0-1.067.176-1.472.528-.395.341-.613.784-.656 1.328zm1.92.864v.256c0 .085-.005.17-.016.256h-5.84c.021.277.091.533.208.768.128.224.293.421.496.592.203.16.432.288.688.384s.523.144.8.144c.48 0 .885-.086 1.216-.256.331-.182.603-.427.816-.736l1.28 1.024c-.757 1.024-1.856 1.536-3.296 1.536-.597 0-1.147-.091-1.648-.272-.501-.192-.939-.459-1.312-.8-.363-.342-.651-.758-.864-1.248-.203-.502-.304-1.067-.304-1.696 0-.619.101-1.179.304-1.68.213-.512.501-.944.864-1.296.363-.363.789-.64 1.28-.832.501-.203 1.04-.304 1.616-.304.533 0 1.024.09 1.472.272.459.17.853.432 1.184.784.331.341.587.773.768 1.296.192.512.288 1.114.288 1.808zm1.86-3.936h1.84v1.28h.032c.213-.448.512-.811.896-1.088.384-.278.832-.416 1.344-.416.074 0 .154.005.24.016.085 0 .16.01.224.032v1.76c-.128-.032-.24-.054-.336-.064-.086-.011-.171-.016-.256-.016-.438 0-.79.08-1.056.24-.267.16-.475.352-.624.576-.15.224-.251.453-.304.688-.054.234-.08.421-.08.56v4.112h-1.92zm10.036 2.048c-.171-.224-.406-.416-.704-.576-.299-.171-.624-.256-.976-.256-.31 0-.592.064-.848.192s-.384.341-.384.64c0 .298.138.512.416.64.288.117.704.24 1.248.368.288.064.576.149.864.256.298.106.565.25.8.432.245.17.442.389.592.656.149.256.224.57.224.944 0 .469-.091.869-.272 1.2-.171.32-.406.581-.704.784-.288.202-.63.346-1.024.432-.384.096-.784.144-1.2.144-.598 0-1.179-.107-1.744-.32-.566-.224-1.035-.539-1.408-.944l1.264-1.184c.213.277.49.506.832.688.341.181.72.272 1.136.272.138 0 .277-.016.416-.048.149-.032.282-.08.4-.144.128-.075.229-.171.304-.288.074-.118.112-.262.112-.432 0-.32-.15-.55-.448-.688-.288-.139-.726-.278-1.312-.416-.288-.064-.571-.144-.848-.24-.267-.107-.507-.24-.72-.4-.214-.171-.384-.379-.512-.624-.128-.246-.192-.55-.192-.912 0-.427.085-.795.256-1.104.181-.31.416-.56.704-.752.288-.203.613-.352.976-.448.362-.096.736-.144 1.12-.144.554 0 1.093.096 1.616.288.533.192.954.485 1.264.88z" fill="#fff"/><g stroke="#5653ff" stroke-width="2"><path d="m94 138h54"/><path d="m275 135h-29"/><path d="m317 135h-42"/><path d="m534 132h-61"/><path d="m58 167v43"/><path d="m564 249h-459" stroke-dasharray="5 4"/></g><path d="m608 106.143v5.714c0 5.036-12.094 9.143-27 9.143s-27-4.107-27-9.143v-5.714c0-5.036 12.094-9.143 27-9.143s27 4.107 27 9.143zm0 12.857v12.857c0 5.036-12.094 9.143-27 9.143s-27-4.107-27-9.143v-12.857c5.801 4.143 16.418 6.072 27 6.072s21.199-1.929 27-6.072zm0 20v12.857c0 5.036-12.094 9.143-27 9.143s-27-4.107-27-9.143v-12.857c5.801 4.143 16.418 6.071 27 6.071s21.199-1.928 27-6.071z" fill="#5653ff"/><rect fill="#5653ff" height="92" rx="3" transform="matrix(0 -1 1 0 460 610)" width="42" x="535" y="75"/><path d="m548.441 41.38h2.955l2.76 7.545h.045l2.73-7.545h2.97v10.62h-1.875v-8.535h-.03l-3.225 8.535h-1.32l-3.18-8.535h-.03v8.535h-1.8zm18.778 6.3c0-.23-.035-.45-.105-.66-.06-.21-.16-.395-.3-.555s-.32-.285-.54-.375c-.21-.1-.46-.15-.75-.15-.54 0-1 .165-1.38.495-.37.32-.575.735-.615 1.245zm1.8.81v.24c0 .08-.005.16-.015.24h-5.475c.02.26.085.5.195.72.12.21.275.395.465.555.19.15.405.27.645.36s.49.135.75.135c.45 0 .83-.08 1.14-.24.31-.17.565-.4.765-.69l1.2.96c-.71.96-1.74 1.44-3.09 1.44-.56 0-1.075-.085-1.545-.255-.47-.18-.88-.43-1.23-.75-.34-.32-.61-.71-.81-1.17-.19-.47-.285-1-.285-1.59 0-.58.095-1.105.285-1.575.2-.48.47-.885.81-1.215.34-.34.74-.6 1.2-.78.47-.19.975-.285 1.515-.285.5 0 .96.085 1.38.255.43.16.8.405 1.11.735.31.32.55.725.72 1.215.18.48.27 1.045.27 1.695zm.709-2.25v-1.44h1.26v-2.085h1.77v2.085h1.8v1.44h-1.8v3.345c0 .32.055.585.165.795.12.21.38.315.78.315.12 0 .25-.01.39-.03.14-.03.265-.07.375-.12l.06 1.41c-.16.06-.35.105-.57.135-.22.04-.43.06-.63.06-.48 0-.87-.065-1.17-.195-.3-.14-.54-.325-.72-.555-.17-.24-.29-.51-.36-.81-.06-.31-.09-.64-.09-.99v-3.36zm10.602 4.845h-.045c-.18.32-.47.585-.87.795-.4.2-.855.3-1.365.3-.29 0-.595-.04-.915-.12-.31-.07-.6-.19-.87-.36-.26-.18-.48-.41-.66-.69-.17-.29-.255-.645-.255-1.065 0-.54.15-.97.45-1.29.31-.32.705-.565 1.185-.735s1.01-.28 1.59-.33c.59-.06 1.165-.09 1.725-.09v-.18c0-.45-.165-.78-.495-.99-.32-.22-.705-.33-1.155-.33-.38 0-.745.08-1.095.24s-.64.355-.87.585l-.93-1.095c.41-.38.88-.665 1.41-.855.54-.19 1.085-.285 1.635-.285.64 0 1.165.09 1.575.27.42.18.75.415.99.705s.405.615.495.975c.1.36.15.72.15 1.08v4.38h-1.68zm-.03-2.37h-.405c-.29 0-.595.015-.915.045-.32.02-.615.075-.885.165-.27.08-.495.2-.675.36-.18.15-.27.36-.27.63 0 .17.035.315.105.435.08.11.18.2.3.27s.255.12.405.15.3.045.45.045c.62 0 1.09-.165 1.41-.495s.48-.78.48-1.35zm11.127 3.285h-1.71v-1.08h-.03c-.25.42-.6.74-1.05.96-.44.22-.915.33-1.425.33-.55 0-1.045-.1-1.485-.3-.43-.21-.8-.485-1.11-.825-.3-.35-.535-.755-.705-1.215-.16-.47-.24-.97-.24-1.5s.085-1.025.255-1.485.41-.86.72-1.2.68-.605 1.11-.795c.43-.2.9-.3 1.41-.3.33 0 .625.04.885.12.26.07.485.16.675.27.2.11.37.23.51.36s.255.255.345.375h.045v-5.055h1.8zm-5.925-3.63c0 .28.04.56.12.84.09.28.22.53.39.75s.385.4.645.54.565.21.915.21c.33 0 .625-.065.885-.195.26-.14.48-.32.66-.54.19-.22.33-.465.42-.735.1-.28.15-.56.15-.84s-.05-.56-.15-.84c-.09-.28-.23-.53-.42-.75-.18-.22-.4-.4-.66-.54s-.555-.21-.885-.21c-.35 0-.655.07-.915.21-.26.13-.475.305-.645.525s-.3.47-.39.75c-.08.27-.12.545-.12.825zm12.582 2.715h-.045c-.18.32-.47.585-.87.795-.4.2-.855.3-1.365.3-.29 0-.595-.04-.915-.12-.31-.07-.6-.19-.87-.36-.26-.18-.48-.41-.66-.69-.17-.29-.255-.645-.255-1.065 0-.54.15-.97.45-1.29.31-.32.705-.565 1.185-.735s1.01-.28 1.59-.33c.59-.06 1.165-.09 1.725-.09v-.18c0-.45-.165-.78-.495-.99-.32-.22-.705-.33-1.155-.33-.38 0-.745.08-1.095.24s-.64.355-.87.585l-.93-1.095c.41-.38.88-.665 1.41-.855.54-.19 1.085-.285 1.635-.285.64 0 1.165.09 1.575.27.42.18.75.415.99.705s.405.615.495.975c.1.36.15.72.15 1.08v4.38h-1.68zm-.03-2.37h-.405c-.29 0-.595.015-.915.045-.32.02-.615.075-.885.165-.27.08-.495.2-.675.36-.18.15-.27.36-.27.63 0 .17.035.315.105.435.08.11.18.2.3.27s.255.12.405.15.3.045.45.045c.62 0 1.09-.165 1.41-.495s.48-.78.48-1.35zm2.626-2.475v-1.44h1.26v-2.085h1.77v2.085h1.8v1.44h-1.8v3.345c0 .32.055.585.165.795.12.21.38.315.78.315.12 0 .25-.01.39-.03.14-.03.265-.07.375-.12l.06 1.41c-.16.06-.35.105-.57.135-.22.04-.43.06-.63.06-.48 0-.87-.065-1.17-.195-.3-.14-.54-.325-.72-.555-.17-.24-.29-.51-.36-.81-.06-.31-.09-.64-.09-.99v-3.36zm10.602 4.845h-.045c-.18.32-.47.585-.87.795-.4.2-.855.3-1.365.3-.29 0-.595-.04-.915-.12-.31-.07-.6-.19-.87-.36-.26-.18-.48-.41-.66-.69-.17-.29-.255-.645-.255-1.065 0-.54.15-.97.45-1.29.31-.32.705-.565 1.185-.735s1.01-.28 1.59-.33c.59-.06 1.165-.09 1.725-.09v-.18c0-.45-.165-.78-.495-.99-.32-.22-.705-.33-1.155-.33-.38 0-.745.08-1.095.24s-.64.355-.87.585l-.93-1.095c.41-.38.88-.665 1.41-.855.54-.19 1.085-.285 1.635-.285.64 0 1.165.09 1.575.27.42.18.75.415.99.705s.405.615.495.975c.1.36.15.72.15 1.08v4.38h-1.68zm-.03-2.37h-.405c-.29 0-.595.015-.915.045-.32.02-.615.075-.885.165-.27.08-.495.2-.675.36-.18.15-.27.36-.27.63 0 .17.035.315.105.435.08.11.18.2.3.27s.255.12.405.15.3.045.45.045c.62 0 1.09-.165 1.41-.495s.48-.78.48-1.35zm-41.479 11.155c-.28-.38-.645-.655-1.095-.825-.45-.18-.89-.27-1.32-.27-.55 0-1.05.1-1.5.3s-.84.475-1.17.825c-.32.35-.57.76-.75 1.23-.17.47-.255.98-.255 1.53 0 .58.085 1.11.255 1.59s.41.895.72 1.245c.32.34.7.605 1.14.795s.935.285 1.485.285c.57 0 1.075-.11 1.515-.33.44-.23.795-.53 1.065-.9l1.515 1.065c-.47.59-1.045 1.05-1.725 1.38-.68.32-1.475.48-2.385.48-.83 0-1.595-.135-2.295-.405-.69-.28-1.285-.665-1.785-1.155-.5-.5-.89-1.09-1.17-1.77-.28-.69-.42-1.45-.42-2.28 0-.85.145-1.615.435-2.295.3-.69.705-1.275 1.215-1.755.52-.48 1.13-.85 1.83-1.11s1.46-.39 2.28-.39c.34 0 .695.035 1.065.105.37.06.725.16 1.065.3.34.13.66.295.96.495s.555.44.765.72zm6.895 7.215h-.045c-.18.32-.47.585-.87.795-.4.2-.855.3-1.365.3-.29 0-.595-.04-.915-.12-.31-.07-.6-.19-.87-.36-.26-.18-.48-.41-.66-.69-.17-.29-.255-.645-.255-1.065 0-.54.15-.97.45-1.29.31-.32.705-.565 1.185-.735s1.01-.28 1.59-.33c.59-.06 1.165-.09 1.725-.09v-.18c0-.45-.165-.78-.495-.99-.32-.22-.705-.33-1.155-.33-.38 0-.745.08-1.095.24s-.64.355-.87.585l-.93-1.095c.41-.38.88-.665 1.41-.855.54-.19 1.085-.285 1.635-.285.64 0 1.165.09 1.575.27.42.18.75.415.99.705s.405.615.495.975c.1.36.15.72.15 1.08v4.38h-1.68zm-.03-2.37h-.405c-.29 0-.595.015-.915.045-.32.02-.615.075-.885.165-.27.08-.495.2-.675.36-.18.15-.27.36-.27.63 0 .17.035.315.105.435.08.11.18.2.3.27s.255.12.405.15.3.045.45.045c.62 0 1.09-.165 1.41-.495s.48-.78.48-1.35zm8.727-1.92c-.14-.2-.35-.365-.63-.495-.28-.14-.565-.21-.855-.21-.33 0-.62.07-.87.21-.25.13-.46.305-.63.525-.16.22-.28.47-.36.75-.08.27-.12.545-.12.825s.04.56.12.84c.09.27.22.515.39.735s.38.4.63.54c.26.13.56.195.9.195.28 0 .56-.055.84-.165s.505-.27.675-.48l1.125 1.14c-.3.32-.685.57-1.155.75-.46.17-.96.255-1.5.255-.53 0-1.035-.085-1.515-.255-.47-.17-.885-.42-1.245-.75-.35-.33-.63-.73-.84-1.2-.2-.47-.3-1.005-.3-1.605 0-.58.1-1.105.3-1.575.21-.47.49-.87.84-1.2s.755-.585 1.215-.765c.47-.18.97-.27 1.5-.27s1.04.1 1.53.3c.5.2.895.475 1.185.825zm6.409-2.205c.47 0 .87.085 1.2.255.34.16.615.375.825.645.22.27.38.58.48.93s.15.71.15 1.08v4.5h-1.8v-3.96c0-.21-.015-.425-.045-.645-.03-.23-.095-.435-.195-.615-.09-.19-.225-.345-.405-.465-.17-.12-.4-.18-.69-.18s-.54.055-.75.165-.385.26-.525.45c-.14.18-.245.385-.315.615s-.105.465-.105.705v3.93h-1.8v-11.34h1.8v5.145h.03c.07-.15.17-.295.3-.435.14-.15.3-.28.48-.39.18-.12.385-.215.615-.285s.48-.105.75-.105zm9.825 3.09c0-.23-.035-.45-.105-.66-.06-.21-.16-.395-.3-.555s-.32-.285-.54-.375c-.21-.1-.46-.15-.75-.15-.54 0-1 .165-1.38.495-.37.32-.575.735-.615 1.245zm1.8.81v.24c0 .08-.005.16-.015.24h-5.475c.02.26.085.5.195.72.12.21.275.395.465.555.19.15.405.27.645.36s.49.135.75.135c.45 0 .83-.08 1.14-.24.31-.17.565-.4.765-.69l1.2.96c-.71.96-1.74 1.44-3.09 1.44-.56 0-1.075-.085-1.545-.255-.47-.18-.88-.43-1.23-.75-.34-.32-.61-.71-.81-1.17-.19-.47-.285-1-.285-1.59 0-.58.095-1.105.285-1.575.2-.48.47-.885.81-1.215.34-.34.74-.6 1.2-.78.47-.19.975-.285 1.515-.285.5 0 .96.085 1.38.255.43.16.8.405 1.11.735.31.32.55.725.72 1.215.18.48.27 1.045.27 1.695z" fill="#fff"/><path d="m629.252 117.504h2.364l2.208 6.036h.036l2.184-6.036h2.376v8.496h-1.5v-6.828h-.024l-2.58 6.828h-1.056l-2.544-6.828h-.024v6.828h-1.44zm15.023 5.04c0-.184-.028-.36-.084-.528-.048-.168-.128-.316-.24-.444s-.256-.228-.432-.3c-.168-.08-.368-.12-.6-.12-.432 0-.8.132-1.104.396-.296.256-.46.588-.492.996zm1.44.648v.192c0 .064-.004.128-.012.192h-4.38c.016.208.068.4.156.576.096.168.22.316.372.444.152.12.324.216.516.288s.392.108.6.108c.36 0 .664-.064.912-.192.248-.136.452-.32.612-.552l.96.768c-.568.768-1.392 1.152-2.472 1.152-.448 0-.86-.068-1.236-.204-.376-.144-.704-.344-.984-.6-.272-.256-.488-.568-.648-.936-.152-.376-.228-.8-.228-1.272 0-.464.076-.884.228-1.26.16-.384.376-.708.648-.972.272-.272.592-.48.96-.624.376-.152.78-.228 1.212-.228.4 0 .768.068 1.104.204.344.128.64.324.888.588.248.256.44.58.576.972.144.384.216.836.216 1.356zm.567-1.8v-1.152h1.008v-1.668h1.416v1.668h1.44v1.152h-1.44v2.676c0 .256.044.468.132.636.096.168.304.252.624.252.096 0 .2-.008.312-.024.112-.024.212-.056.3-.096l.048 1.128c-.128.048-.28.084-.456.108-.176.032-.344.048-.504.048-.384 0-.696-.052-.936-.156-.24-.112-.432-.26-.576-.444-.136-.192-.232-.408-.288-.648-.048-.248-.072-.512-.072-.792v-2.688zm8.482 3.876h-.036c-.144.256-.376.468-.696.636-.32.16-.684.24-1.092.24-.232 0-.476-.032-.732-.096-.248-.056-.48-.152-.696-.288-.208-.144-.384-.328-.528-.552-.136-.232-.204-.516-.204-.852 0-.432.12-.776.36-1.032.248-.256.564-.452.948-.588s.808-.224 1.272-.264c.472-.048.932-.072 1.38-.072v-.144c0-.36-.132-.624-.396-.792-.256-.176-.564-.264-.924-.264-.304 0-.596.064-.876.192s-.512.284-.696.468l-.744-.876c.328-.304.704-.532 1.128-.684.432-.152.868-.228 1.308-.228.512 0 .932.072 1.26.216.336.144.6.332.792.564s.324.492.396.78c.08.288.12.576.12.864v3.504h-1.344zm-.024-1.896h-.324c-.232 0-.476.012-.732.036-.256.016-.492.06-.708.132-.216.064-.396.16-.54.288-.144.12-.216.288-.216.504 0 .136.028.252.084.348.064.088.144.16.24.216s.204.096.324.12.24.036.36.036c.496 0 .872-.132 1.128-.396s.384-.624.384-1.08zm8.902 2.628h-1.368v-.864h-.024c-.2.336-.48.592-.84.768-.352.176-.732.264-1.14.264-.44 0-.836-.08-1.188-.24-.344-.168-.64-.388-.888-.66-.24-.28-.428-.604-.564-.972-.128-.376-.192-.776-.192-1.2s.068-.82.204-1.188.328-.688.576-.96.544-.484.888-.636c.344-.16.72-.24 1.128-.24.264 0 .5.032.708.096.208.056.388.128.54.216.16.088.296.184.408.288s.204.204.276.3h.036v-4.044h1.44zm-4.74-2.904c0 .224.032.448.096.672.072.224.176.424.312.6s.308.32.516.432.452.168.732.168c.264 0 .5-.052.708-.156.208-.112.384-.256.528-.432.152-.176.264-.372.336-.588.08-.224.12-.448.12-.672s-.04-.448-.12-.672c-.072-.224-.184-.424-.336-.6-.144-.176-.32-.32-.528-.432s-.444-.168-.708-.168c-.28 0-.524.056-.732.168-.208.104-.38.244-.516.42s-.24.376-.312.6c-.064.216-.096.436-.096.66zm10.065 2.172h-.036c-.144.256-.376.468-.696.636-.32.16-.684.24-1.092.24-.232 0-.476-.032-.732-.096-.248-.056-.48-.152-.696-.288-.208-.144-.384-.328-.528-.552-.136-.232-.204-.516-.204-.852 0-.432.12-.776.36-1.032.248-.256.564-.452.948-.588s.808-.224 1.272-.264c.472-.048.932-.072 1.38-.072v-.144c0-.36-.132-.624-.396-.792-.256-.176-.564-.264-.924-.264-.304 0-.596.064-.876.192s-.512.284-.696.468l-.744-.876c.328-.304.704-.532 1.128-.684.432-.152.868-.228 1.308-.228.512 0 .932.072 1.26.216.336.144.6.332.792.564s.324.492.396.78c.08.288.12.576.12.864v3.504h-1.344zm-.024-1.896h-.324c-.232 0-.476.012-.732.036-.256.016-.492.06-.708.132-.216.064-.396.16-.54.288-.144.12-.216.288-.216.504 0 .136.028.252.084.348.064.088.144.16.24.216s.204.096.324.12.24.036.36.036c.496 0 .872-.132 1.128-.396s.384-.624.384-1.08zm2.101-1.98v-1.152h1.008v-1.668h1.416v1.668h1.44v1.152h-1.44v2.676c0 .256.044.468.132.636.096.168.304.252.624.252.096 0 .2-.008.312-.024.112-.024.212-.056.3-.096l.048 1.128c-.128.048-.28.084-.456.108-.176.032-.344.048-.504.048-.384 0-.696-.052-.936-.156-.24-.112-.432-.26-.576-.444-.136-.192-.232-.408-.288-.648-.048-.248-.072-.512-.072-.792v-2.688zm8.482 3.876h-.036c-.144.256-.376.468-.696.636-.32.16-.684.24-1.092.24-.232 0-.476-.032-.732-.096-.248-.056-.48-.152-.696-.288-.208-.144-.384-.328-.528-.552-.136-.232-.204-.516-.204-.852 0-.432.12-.776.36-1.032.248-.256.564-.452.948-.588s.808-.224 1.272-.264c.472-.048.932-.072 1.38-.072v-.144c0-.36-.132-.624-.396-.792-.256-.176-.564-.264-.924-.264-.304 0-.596.064-.876.192s-.512.284-.696.468l-.744-.876c.328-.304.704-.532 1.128-.684.432-.152.868-.228 1.308-.228.512 0 .932.072 1.26.216.336.144.6.332.792.564s.324.492.396.78c.08.288.12.576.12.864v3.504h-1.344zm-.024-1.896h-.324c-.232 0-.476.012-.732.036-.256.016-.492.06-.708.132-.216.064-.396.16-.54.288-.144.12-.216.288-.216.504 0 .136.028.252.084.348.064.088.144.16.24.216s.204.096.324.12.24.036.36.036c.496 0 .872-.132 1.128-.396s.384-.624.384-1.08zm-48.445 10.132h3.012c.552 0 1.108.072 1.668.216s1.064.384 1.512.72c.448.328.812.764 1.092 1.308.28.536.42 1.204.42 2.004 0 .744-.14 1.384-.42 1.92s-.644.976-1.092 1.32-.952.6-1.512.768c-.56.16-1.116.24-1.668.24h-3.012zm2.772 7.176c.392 0 .784-.044 1.176-.132.392-.096.744-.252 1.056-.468.32-.224.58-.524.78-.9s.3-.852.3-1.428c0-.608-.1-1.104-.3-1.488s-.46-.684-.78-.9c-.312-.216-.664-.364-1.056-.444s-.784-.12-1.176-.12h-1.26v5.88zm9.896.588h-.036c-.144.256-.376.468-.696.636-.32.16-.684.24-1.092.24-.232 0-.476-.032-.732-.096-.248-.056-.48-.152-.696-.288-.208-.144-.384-.328-.528-.552-.136-.232-.204-.516-.204-.852 0-.432.12-.776.36-1.032.248-.256.564-.452.948-.588s.808-.224 1.272-.264c.472-.048.932-.072 1.38-.072v-.144c0-.36-.132-.624-.396-.792-.256-.176-.564-.264-.924-.264-.304 0-.596.064-.876.192s-.512.284-.696.468l-.744-.876c.328-.304.704-.532 1.128-.684.432-.152.868-.228 1.308-.228.512 0 .932.072 1.26.216.336.144.6.332.792.564s.324.492.396.78c.08.288.12.576.12.864v3.504h-1.344zm-.024-1.896h-.324c-.232 0-.476.012-.732.036-.256.016-.492.06-.708.132-.216.064-.396.16-.54.288-.144.12-.216.288-.216.504 0 .136.028.252.084.348.064.088.144.16.24.216s.204.096.324.12.24.036.36.036c.496 0 .872-.132 1.128-.396s.384-.624.384-1.08zm2.101-1.98v-1.152h1.008v-1.668h1.416v1.668h1.44v1.152h-1.44v2.676c0 .256.044.468.132.636.096.168.304.252.624.252.096 0 .2-.008.312-.024.112-.024.212-.056.3-.096l.048 1.128c-.128.048-.28.084-.456.108-.176.032-.344.048-.504.048-.384 0-.696-.052-.936-.156-.24-.112-.432-.26-.576-.444-.136-.192-.232-.408-.288-.648-.048-.248-.072-.512-.072-.792v-2.688zm8.482 3.876h-.036c-.144.256-.376.468-.696.636-.32.16-.684.24-1.092.24-.232 0-.476-.032-.732-.096-.248-.056-.48-.152-.696-.288-.208-.144-.384-.328-.528-.552-.136-.232-.204-.516-.204-.852 0-.432.12-.776.36-1.032.248-.256.564-.452.948-.588s.808-.224 1.272-.264c.472-.048.932-.072 1.38-.072v-.144c0-.36-.132-.624-.396-.792-.256-.176-.564-.264-.924-.264-.304 0-.596.064-.876.192s-.512.284-.696.468l-.744-.876c.328-.304.704-.532 1.128-.684.432-.152.868-.228 1.308-.228.512 0 .932.072 1.26.216.336.144.6.332.792.564s.324.492.396.78c.08.288.12.576.12.864v3.504h-1.344zm-.024-1.896h-.324c-.232 0-.476.012-.732.036-.256.016-.492.06-.708.132-.216.064-.396.16-.54.288-.144.12-.216.288-.216.504 0 .136.028.252.084.348.064.088.144.16.24.216s.204.096.324.12.24.036.36.036c.496 0 .872-.132 1.128-.396s.384-.624.384-1.08zm4.509-6.444v4.044h.036c.072-.096.164-.196.276-.3s.244-.2.396-.288c.16-.088.344-.16.552-.216.208-.064.444-.096.708-.096.408 0 .784.08 1.128.24.344.152.64.364.888.636s.44.592.576.96.204.764.204 1.188-.068.824-.204 1.2c-.128.368-.316.692-.564.972-.24.272-.536.492-.888.66-.344.16-.736.24-1.176.24-.408 0-.792-.088-1.152-.264-.352-.176-.628-.432-.828-.768h-.024v.864h-1.368v-9.072zm3.3 6.168c0-.224-.036-.444-.108-.66-.064-.224-.164-.424-.3-.6s-.308-.316-.516-.42c-.208-.112-.452-.168-.732-.168-.264 0-.5.056-.708.168s-.388.256-.54.432c-.144.176-.256.376-.336.6-.072.224-.108.448-.108.672s.036.448.108.672c.08.216.192.412.336.588.152.176.332.32.54.432.208.104.444.156.708.156.28 0 .524-.056.732-.168s.38-.256.516-.432.236-.376.3-.6c.072-.224.108-.448.108-.672zm6.43 2.172h-.036c-.144.256-.376.468-.696.636-.32.16-.684.24-1.092.24-.232 0-.476-.032-.732-.096-.248-.056-.48-.152-.696-.288-.208-.144-.384-.328-.528-.552-.136-.232-.204-.516-.204-.852 0-.432.12-.776.36-1.032.248-.256.564-.452.948-.588s.808-.224 1.272-.264c.472-.048.932-.072 1.38-.072v-.144c0-.36-.132-.624-.396-.792-.256-.176-.564-.264-.924-.264-.304 0-.596.064-.876.192s-.512.284-.696.468l-.744-.876c.328-.304.704-.532 1.128-.684.432-.152.868-.228 1.308-.228.512 0 .932.072 1.26.216.336.144.6.332.792.564s.324.492.396.78c.08.288.12.576.12.864v3.504h-1.344zm-.024-1.896h-.324c-.232 0-.476.012-.732.036-.256.016-.492.06-.708.132-.216.064-.396.16-.54.288-.144.12-.216.288-.216.504 0 .136.028.252.084.348.064.088.144.16.24.216s.204.096.324.12.24.036.36.036c.496 0 .872-.132 1.128-.396s.384-.624.384-1.08zm6.201-1.596c-.128-.168-.304-.312-.528-.432-.224-.128-.468-.192-.732-.192-.232 0-.444.048-.636.144s-.288.256-.288.48.104.384.312.48c.216.088.528.18.936.276.216.048.432.112.648.192.224.08.424.188.6.324.184.128.332.292.444.492.112.192.168.428.168.708 0 .352-.068.652-.204.9-.128.24-.304.436-.528.588-.216.152-.472.26-.768.324-.288.072-.588.108-.9.108-.448 0-.884-.08-1.308-.24-.424-.168-.776-.404-1.056-.708l.948-.888c.16.208.368.38.624.516s.54.204.852.204c.104 0 .208-.012.312-.036.112-.024.212-.06.3-.108.096-.056.172-.128.228-.216s.084-.196.084-.324c0-.24-.112-.412-.336-.516-.216-.104-.544-.208-.984-.312-.216-.048-.428-.108-.636-.18-.2-.08-.38-.18-.54-.3-.16-.128-.288-.284-.384-.468s-.144-.412-.144-.684c0-.32.064-.596.192-.828.136-.232.312-.42.528-.564.216-.152.46-.264.732-.336s.552-.108.84-.108c.416 0 .82.072 1.212.216.4.144.716.364.948.66zm6.232.768c0-.184-.028-.36-.084-.528-.048-.168-.128-.316-.24-.444s-.256-.228-.432-.3c-.168-.08-.368-.12-.6-.12-.432 0-.8.132-1.104.396-.296.256-.46.588-.492.996zm1.44.648v.192c0 .064-.004.128-.012.192h-4.38c.016.208.068.4.156.576.096.168.22.316.372.444.152.12.324.216.516.288s.392.108.6.108c.36 0 .664-.064.912-.192.248-.136.452-.32.612-.552l.96.768c-.568.768-1.392 1.152-2.472 1.152-.448 0-.86-.068-1.236-.204-.376-.144-.704-.344-.984-.6-.272-.256-.488-.568-.648-.936-.152-.376-.228-.8-.228-1.272 0-.464.076-.884.228-1.26.16-.384.376-.708.648-.972.272-.272.592-.48.96-.624.376-.152.78-.228 1.212-.228.4 0 .768.068 1.104.204.344.128.64.324.888.588.248.256.44.58.576.972.144.384.216.836.216 1.356z" fill="#5653ff"/><path d="m641.291 228.496c-.224-.304-.516-.524-.876-.66-.36-.144-.712-.216-1.056-.216-.44 0-.84.08-1.2.24s-.672.38-.936.66c-.256.28-.456.608-.6.984-.136.376-.204.784-.204 1.224 0 .464.068.888.204 1.272s.328.716.576.996c.256.272.56.484.912.636s.748.228 1.188.228c.456 0 .86-.088 1.212-.264.352-.184.636-.424.852-.72l1.212.852c-.376.472-.836.84-1.38 1.104-.544.256-1.18.384-1.908.384-.664 0-1.276-.108-1.836-.324-.552-.224-1.028-.532-1.428-.924-.4-.4-.712-.872-.936-1.416-.224-.552-.336-1.16-.336-1.824 0-.68.116-1.292.348-1.836.24-.552.564-1.02.972-1.404.416-.384.904-.68 1.464-.888s1.168-.312 1.824-.312c.272 0 .556.028.852.084.296.048.58.128.852.24.272.104.528.236.768.396s.444.352.612.576zm1.675 3.6c0-.456.08-.868.24-1.236.168-.376.392-.696.672-.96s.612-.468.996-.612.792-.216 1.224-.216.84.072 1.224.216.716.348.996.612.5.584.66.96c.168.368.252.78.252 1.236s-.084.872-.252 1.248c-.16.376-.38.7-.66.972-.28.264-.612.472-.996.624s-.792.228-1.224.228-.84-.076-1.224-.228-.716-.36-.996-.624c-.28-.272-.504-.596-.672-.972-.16-.376-.24-.792-.24-1.248zm1.464 0c0 .224.032.448.096.672.072.224.176.424.312.6s.308.32.516.432.456.168.744.168.536-.056.744-.168.38-.256.516-.432.236-.376.3-.6c.072-.224.108-.448.108-.672s-.036-.444-.108-.66c-.064-.224-.164-.424-.3-.6s-.308-.316-.516-.42c-.208-.112-.456-.168-.744-.168s-.536.056-.744.168c-.208.104-.38.244-.516.42s-.24.376-.312.6c-.064.216-.096.436-.096.66zm6.196-2.856h1.368v.924h.024c.128-.288.348-.54.66-.756.32-.224.696-.336 1.128-.336.376 0 .696.068.96.204.272.128.492.3.66.516.176.216.304.464.384.744s.12.568.12.864v3.6h-1.44v-3.192c0-.168-.012-.344-.036-.528s-.076-.348-.156-.492c-.08-.152-.192-.276-.336-.372-.136-.096-.32-.144-.552-.144s-.432.048-.6.144c-.168.088-.308.204-.42.348-.104.144-.184.312-.24.504-.056.184-.084.372-.084.564v3.168h-1.44zm6.156 1.152v-1.152h1.008v-1.668h1.416v1.668h1.44v1.152h-1.44v2.676c0 .256.044.468.132.636.096.168.304.252.624.252.096 0 .2-.008.312-.024.112-.024.212-.056.3-.096l.048 1.128c-.128.048-.28.084-.456.108-.176.032-.344.048-.504.048-.384 0-.696-.052-.936-.156-.24-.112-.432-.26-.576-.444-.136-.192-.232-.408-.288-.648-.048-.248-.072-.512-.072-.792v-2.688zm8.962 1.152c0-.184-.028-.36-.084-.528-.048-.168-.128-.316-.24-.444s-.256-.228-.432-.3c-.168-.08-.368-.12-.6-.12-.432 0-.8.132-1.104.396-.296.256-.46.588-.492.996zm1.44.648v.192c0 .064-.004.128-.012.192h-4.38c.016.208.068.4.156.576.096.168.22.316.372.444.152.12.324.216.516.288s.392.108.6.108c.36 0 .664-.064.912-.192.248-.136.452-.32.612-.552l.96.768c-.568.768-1.392 1.152-2.472 1.152-.448 0-.86-.068-1.236-.204-.376-.144-.704-.344-.984-.6-.272-.256-.488-.568-.648-.936-.152-.376-.228-.8-.228-1.272 0-.464.076-.884.228-1.26.16-.384.376-.708.648-.972.272-.272.592-.48.96-.624.376-.152.78-.228 1.212-.228.4 0 .768.068 1.104.204.344.128.64.324.888.588.248.256.44.58.576.972.144.384.216.836.216 1.356zm1.395-2.952h1.368v.924h.024c.128-.288.348-.54.66-.756.32-.224.696-.336 1.128-.336.376 0 .696.068.96.204.272.128.492.3.66.516.176.216.304.464.384.744s.12.568.12.864v3.6h-1.44v-3.192c0-.168-.012-.344-.036-.528s-.076-.348-.156-.492c-.08-.152-.192-.276-.336-.372-.136-.096-.32-.144-.552-.144s-.432.048-.6.144c-.168.088-.308.204-.42.348-.104.144-.184.312-.24.504-.056.184-.084.372-.084.564v3.168h-1.44zm6.156 1.152v-1.152h1.008v-1.668h1.416v1.668h1.44v1.152h-1.44v2.676c0 .256.044.468.132.636.096.168.304.252.624.252.096 0 .2-.008.312-.024.112-.024.212-.056.3-.096l.048 1.128c-.128.048-.28.084-.456.108-.176.032-.344.048-.504.048-.384 0-.696-.052-.936-.156-.24-.112-.432-.26-.576-.444-.136-.192-.232-.408-.288-.648-.048-.248-.072-.512-.072-.792v-2.688zm-34.723 13.888c-.16-.208-.388-.38-.684-.516-.288-.144-.58-.216-.876-.216-.176 0-.352.024-.528.072-.176.04-.336.108-.48.204-.144.088-.264.208-.36.36-.088.144-.132.32-.132.528 0 .192.04.356.12.492s.188.252.324.348c.144.096.316.18.516.252s.42.144.66.216c.272.088.552.188.84.3.296.112.564.26.804.444.248.184.448.416.6.696.16.28.24.628.24 1.044 0 .456-.084.856-.252 1.2-.168.336-.392.616-.672.84s-.608.392-.984.504-.772.168-1.188.168c-.552 0-1.092-.1-1.62-.3-.528-.208-.96-.512-1.296-.912l1.08-1.008c.208.288.484.516.828.684.352.168.696.252 1.032.252.176 0 .356-.02.54-.06.184-.048.348-.124.492-.228.152-.104.272-.232.36-.384.096-.16.144-.356.144-.588 0-.224-.052-.408-.156-.552-.104-.152-.244-.28-.42-.384-.176-.112-.384-.208-.624-.288s-.492-.164-.756-.252c-.256-.08-.512-.176-.768-.288s-.488-.26-.696-.444c-.2-.184-.364-.408-.492-.672-.128-.272-.192-.608-.192-1.008 0-.432.088-.804.264-1.116.184-.312.42-.568.708-.768.296-.208.628-.36.996-.456.376-.104.756-.156 1.14-.156.432 0 .868.076 1.308.228.448.152.836.38 1.164.684zm1.588 2.112v-1.152h1.008v-1.668h1.416v1.668h1.44v1.152h-1.44v2.676c0 .256.044.468.132.636.096.168.304.252.624.252.096 0 .2-.008.312-.024.112-.024.212-.056.3-.096l.048 1.128c-.128.048-.28.084-.456.108-.176.032-.344.048-.504.048-.384 0-.696-.052-.936-.156-.24-.112-.432-.26-.576-.444-.136-.192-.232-.408-.288-.648-.048-.248-.072-.512-.072-.792v-2.688zm4.571 1.704c0-.456.08-.868.24-1.236.168-.376.392-.696.672-.96s.612-.468.996-.612.792-.216 1.224-.216.84.072 1.224.216.716.348.996.612.5.584.66.96c.168.368.252.78.252 1.236s-.084.872-.252 1.248c-.16.376-.38.7-.66.972-.28.264-.612.472-.996.624s-.792.228-1.224.228-.84-.076-1.224-.228-.716-.36-.996-.624c-.28-.272-.504-.596-.672-.972-.16-.376-.24-.792-.24-1.248zm1.464 0c0 .224.032.448.096.672.072.224.176.424.312.6s.308.32.516.432.456.168.744.168.536-.056.744-.168.38-.256.516-.432.236-.376.3-.6c.072-.224.108-.448.108-.672s-.036-.444-.108-.66c-.064-.224-.164-.424-.3-.6s-.308-.316-.516-.42c-.208-.112-.456-.168-.744-.168s-.536.056-.744.168c-.208.104-.38.244-.516.42s-.24.376-.312.6c-.064.216-.096.436-.096.66zm6.196-2.856h1.38v.96h.024c.16-.336.384-.608.672-.816s.624-.312 1.008-.312c.056 0 .116.004.18.012.064 0 .12.008.168.024v1.32c-.096-.024-.18-.04-.252-.048-.064-.008-.128-.012-.192-.012-.328 0-.592.06-.792.18s-.356.264-.468.432-.188.34-.228.516-.06.316-.06.42v3.084h-1.44zm7.795 5.028h-.036c-.144.256-.376.468-.696.636-.32.16-.684.24-1.092.24-.232 0-.476-.032-.732-.096-.248-.056-.48-.152-.696-.288-.208-.144-.384-.328-.528-.552-.136-.232-.204-.516-.204-.852 0-.432.12-.776.36-1.032.248-.256.564-.452.948-.588s.808-.224 1.272-.264c.472-.048.932-.072 1.38-.072v-.144c0-.36-.132-.624-.396-.792-.256-.176-.564-.264-.924-.264-.304 0-.596.064-.876.192s-.512.284-.696.468l-.744-.876c.328-.304.704-.532 1.128-.684.432-.152.868-.228 1.308-.228.512 0 .932.072 1.26.216.336.144.6.332.792.564s.324.492.396.78c.08.288.12.576.12.864v3.504h-1.344zm-.024-1.896h-.324c-.232 0-.476.012-.732.036-.256.016-.492.06-.708.132-.216.064-.396.16-.54.288-.144.12-.216.288-.216.504 0 .136.028.252.084.348.064.088.144.16.24.216s.204.096.324.12.24.036.36.036c.496 0 .872-.132 1.128-.396s.384-.624.384-1.08zm8.901-3.132v5.244c0 .52-.064.988-.192 1.404-.128.424-.328.78-.6 1.068-.264.296-.6.524-1.008.684s-.892.24-1.452.24c-.232 0-.48-.02-.744-.06-.256-.04-.512-.1-.768-.18-.248-.08-.488-.18-.72-.3s-.44-.256-.624-.408l.828-1.116c.28.264.596.464.948.6.352.144.708.216 1.068.216.344 0 .632-.052.864-.156.24-.096.428-.232.564-.408.144-.176.244-.384.3-.624.064-.24.096-.504.096-.792v-.42h-.024c-.208.28-.476.496-.804.648-.32.144-.68.216-1.08.216-.432 0-.824-.08-1.176-.24s-.652-.376-.9-.648c-.24-.272-.428-.588-.564-.948-.136-.368-.204-.756-.204-1.164 0-.416.064-.808.192-1.176.136-.368.324-.688.564-.96.248-.272.544-.488.888-.648.352-.16.744-.24 1.176-.24.408 0 .788.084 1.14.252s.632.428.84.78h.024v-.864zm-3.072 1.008c-.264 0-.5.048-.708.144-.2.096-.372.228-.516.396-.136.16-.244.352-.324.576-.072.224-.108.464-.108.72 0 .232.036.456.108.672.08.216.188.412.324.588.144.168.316.304.516.408.208.104.44.156.696.156.264 0 .5-.048.708-.144.216-.104.396-.24.54-.408.152-.168.268-.36.348-.576.08-.224.12-.456.12-.696 0-.248-.04-.484-.12-.708s-.196-.42-.348-.588c-.144-.168-.32-.3-.528-.396s-.444-.144-.708-.144zm8.854 1.296c0-.184-.028-.36-.084-.528-.048-.168-.128-.316-.24-.444s-.256-.228-.432-.3c-.168-.08-.368-.12-.6-.12-.432 0-.8.132-1.104.396-.296.256-.46.588-.492.996zm1.44.648v.192c0 .064-.004.128-.012.192h-4.38c.016.208.068.4.156.576.096.168.22.316.372.444.152.12.324.216.516.288s.392.108.6.108c.36 0 .664-.064.912-.192.248-.136.452-.32.612-.552l.96.768c-.568.768-1.392 1.152-2.472 1.152-.448 0-.86-.068-1.236-.204-.376-.144-.704-.344-.984-.6-.272-.256-.488-.568-.648-.936-.152-.376-.228-.8-.228-1.272 0-.464.076-.884.228-1.26.16-.384.376-.708.648-.972.272-.272.592-.48.96-.624.376-.152.78-.228 1.212-.228.4 0 .768.068 1.104.204.344.128.64.324.888.588.248.256.44.58.576.972.144.384.216.836.216 1.356z" fill="#5653ff"/><path d="m317 183h-39c-1.657 0-3-1.343-3-3v-91c0-1.6569 1.343-3 3-3h39" stroke="#5653ff" stroke-width="2"/><path d="m554 132h-59" stroke="#5653ff" stroke-width="2"/><path d="m581 97v-22" stroke="#5653ff" stroke-width="2"/><path d="m564 231h-66c-1.657 0-3-1.343-3-3v-170c0-1.6569 1.343-3 3-3h39" stroke="#5653ff" stroke-width="2"/><path d="m604 224.575v.675h-14v-14.25h.663c.696 0 1.364.281 1.856.783l10.712 10.903c.492.501.769 1.181.769 1.889zm-14.875 4.237c-1.444 0-2.625-1.202-2.625-2.671v-15.141h-21.875c-1.45 0-2.625 1.196-2.625 2.672v51.656c0 1.476 1.175 2.672 2.625 2.672h36.75c1.45 0 2.625-1.196 2.625-2.672v-36.516zm-14.815 1.782c2.899 0 5.25 2.392 5.25 5.344 0 2.951-2.351 5.343-5.25 5.343-2.9 0-5.25-2.392-5.25-5.343 0-2.952 2.35-5.344 5.25-5.344zm22.75 26.718h-28l.053-5.397 4.322-4.399c.512-.522 1.29-.468 1.803.054l4.322 4.399 11.322-11.524c.512-.522 1.343-.522 1.856 0l4.322 4.399z" fill="#5653ff"/></svg>